# xmcd
#
# Track frame offsets:
# 182
# 10750
# 25760
# 42895
# 60740
# 72527
# 92727
# 103142
# 116762
# 129705
# 145815
# 161310
# 178660
# 194555
# 208165
#
# Disc length: 2930 seconds
#
#
# Revision: 0
# Processed by: cddbd v1.5.1PL0 Copyright (c) Steve Scherf et al.
# Submitted via: FreeRIP 2.53 
#
DISCID=da0b700f
DTITLE=Christoph Rois, Marc Galperin and Joachim Schumacher - Six Hands Chaser
DYEAR=1991
DGENRE=Boogie Woogie
TTITLE0=Six Hands Chaser
TTITLE1=Off Hour Stomp
TTITLE2=This One's For You
TTITLE3=747 Jetstream Boogie Woogie
TTITLE4=Greenwich Groove
TTITLE5=City Light Blues
TTITLE6=Boogie Woogie Connection
TTITLE7=Blues For ACC
TTITLE8=Sunny Day Blues
TTITLE9=Fallin' Through The Clouds
TTITLE10=Black Limousine Stomp
TTITLE11=See You Again
TTITLE12=Two Baby Grands In The Street
TTITLE13=Blue Eyes Blues
TTITLE14=6th Street Jump
EXTD=199180-2
EXTT0=
EXTT1=
EXTT2=
EXTT3=
EXTT4=
EXTT5=
EXTT6=
EXTT7=
EXTT8=
EXTT9=
EXTT10=
EXTT11=
EXTT12=
EXTT13=
EXTT14=
PLAYORDER=
